<?xml version="1.0" encoding="UTF-8"?>
<svg id="Layer_1" data-name="Layer 1" xmlns="http://www.w3.org/2000/svg" viewBox="0 0 832.97 277.46">
  <defs>
    <style>
      .cls-1 {
        fill: #050606;
      }
    </style>
  </defs>
  <path class="cls-1" d="M347.25,229.93c2.17-5.07,3.27-10.71,3.27-16.77s-1.1-11.7-3.26-16.77c-2.19-5.1-5.27-9.6-9.17-13.37-3.89-3.78-8.59-6.75-13.96-8.83-5.36-2.06-11.28-3.1-17.6-3.1s-12.34,1.06-17.71,3.16c-5.34,2.09-10.06,5.08-14.03,8.88-3.96,3.81-7.07,8.3-9.23,13.33-2.17,5.01-3.26,10.63-3.26,16.71s1.1,11.59,3.27,16.65c2.16,5.07,5.26,9.56,9.22,13.37,3.96,3.8,8.69,6.79,14.08,8.88,5.38,2.08,11.28,3.15,17.54,3.16h51.88v-10.27h-21.9l2.13-2.12c3.72-3.71,6.66-8.05,8.74-12.91ZM334.99,225.41c-1.49,3.73-3.66,7.05-6.47,9.86-2.79,2.79-6.08,4.97-9.8,6.48-3.74,1.49-7.85,2.25-12.19,2.25s-8.48-.75-12.31-2.25c-3.8-1.51-7.11-3.69-9.86-6.48-2.74-2.78-4.93-6.08-6.52-9.83-1.58-3.75-2.39-7.88-2.39-12.27s.8-8.63,2.39-12.35c1.59-3.71,3.78-6.99,6.51-9.76,2.74-2.79,6.06-4.97,9.87-6.48,3.81-1.49,7.95-2.25,12.3-2.25s8.46.75,12.2,2.25c3.72,1.51,7.02,3.69,9.8,6.47,2.8,2.81,4.97,6.11,6.46,9.79,1.5,3.7,2.26,7.84,2.26,12.32s-.76,8.52-2.26,12.25Z"/>
  <rect class="cls-1" x="382.34" y="207.66" width="35.16" height="10.27"/>
  <polygon class="cls-1" points="471.51 172.29 434.74 254.01 448 254.01 478.29 183.49 508.46 254.01 522.19 254.01 485.3 172.29 471.51 172.29"/>
  <path class="cls-1" d="M610.45,217.97c0,8.94-1.97,15.58-5.86,19.73-3.94,4.18-9.54,6.29-16.66,6.29s-12.76-2.11-16.73-6.29c-3.94-4.16-5.93-10.8-5.93-19.74v-45.68h-13.15v46.14c0,11.97,3.17,21.18,9.44,27.39,6.26,6.23,15.05,9.39,26.13,9.39s20-3.16,26.26-9.39c6.26-6.22,9.44-15.43,9.44-27.39v-46.14h-12.92v45.68Z"/>
  <polygon class="cls-1" points="651.91 183.05 679.82 183.05 679.82 254.01 692.98 254.01 692.98 183.05 720.89 183.05 720.89 172.29 651.91 172.29 651.91 183.05"/>
  <path class="cls-1" d="M819.62,182.96c-3.89-3.74-8.6-6.69-13.97-8.77-5.35-2.06-11.27-3.1-17.59-3.1s-12.35,1.06-17.71,3.16c-5.35,2.1-10.07,5.07-14.03,8.84-3.96,3.76-7.06,8.23-9.22,13.3-2.17,5.07-3.27,10.71-3.27,16.77s1.1,11.58,3.27,16.65c2.15,5.06,5.26,9.56,9.22,13.37,3.96,3.8,8.7,6.79,14.09,8.88,5.4,2.1,11.34,3.16,17.65,3.16s12.24-1.04,17.59-3.1c5.33-2.04,10.03-5.01,13.96-8.83,3.9-3.78,6.99-8.27,9.17-13.36,2.17-5.07,3.27-10.7,3.27-16.77s-1.1-11.73-3.27-16.83c-2.18-5.14-5.26-9.63-9.16-13.36ZM816.46,225.53c-1.54,3.74-3.72,7.03-6.47,9.79-2.74,2.75-6.02,4.91-9.74,6.41-3.74,1.49-7.84,2.25-12.19,2.25s-8.48-.75-12.31-2.25c-3.8-1.51-7.12-3.69-9.86-6.48-2.74-2.79-4.93-6.09-6.52-9.83-1.58-3.76-2.38-7.89-2.38-12.27s.8-8.63,2.39-12.35c1.58-3.7,3.78-6.98,6.51-9.76,2.73-2.78,6.06-4.96,9.87-6.48,3.81-1.49,7.95-2.25,12.31-2.25s8.46.75,12.19,2.25c3.73,1.51,7.02,3.67,9.79,6.41,2.81,2.77,4.99,6.07,6.48,9.81,1.5,3.75,2.26,7.91,2.26,12.37s-.78,8.62-2.32,12.38Z"/>
  <path class="cls-1" d="M425.65,32.28c-1.93,0-3.46.59-4.61,1.77-1.14,1.18-1.71,2.88-1.71,5.09s.57,3.82,1.71,5.04c1.15,1.21,2.68,1.82,4.61,1.82s3.57-.62,4.72-1.88c1.14-1.25,1.71-2.9,1.71-4.98s-.56-3.82-1.66-5.04c-1.1-1.21-2.69-1.82-4.76-1.82Z"/>
  <path class="cls-1" d="M407.22,45.99c2,0,3.57-.6,4.72-1.82,1.14-1.21,1.71-2.89,1.71-5.04s-.57-3.91-1.71-5.09c-1.15-1.18-2.72-1.77-4.72-1.77-1.79,0-3.29.55-4.49,1.66-1.22,1.1-1.82,2.83-1.82,5.19s.6,4,1.82,5.14c1.21,1.14,2.71,1.71,4.49,1.71Z"/>
  <path class="cls-1" d="M411.08,98.26h-102.4v-42.41h-14.79c-6.13,0-11.52,1.1-16.17,3.32-4.65,2.22-8.26,5.38-10.87,9.48-2.6,4.11-3.9,9.05-3.9,14.84,0,5.36.92,9.85,2.78,13.49,1.86,3.64,4.58,6.41,8.14,8.3,3.57,1.89,7.89,2.84,12.96,2.84h10.49v2.68c0,3.93-1.27,7.1-3.8,9.53-2.53,2.43-6.12,3.64-10.77,3.64-2.85,0-5.53-.37-8.03-1.12-2.5-.75-5-1.77-7.5-3.06l-4.93,8.68c2.93,1.85,6.05,3.21,9.37,4.07,3.32.85,7.02,1.28,11.08,1.28,5.51,0,10.18-.93,14.03-2.79,3.86-1.85,6.81-4.53,8.84-8.03,2.03-3.5,3.05-7.67,3.05-12.53v-2.36h114.07v-52.27h-11.67v42.41ZM297.32,98.26h-9.21c-4.5,0-7.83-1.21-10.01-3.64-2.17-2.42-3.26-6.21-3.26-11.35,0-5.57,1.6-9.89,4.82-12.96,3.22-3.07,7.68-4.61,13.39-4.61h4.27v32.56Z"/>
  <path class="cls-1" d="M474.21,120.27c-2.53,2.46-6.12,3.69-10.77,3.69-2.85,0-5.53-.37-8.03-1.12-2.5-.75-4.99-1.77-7.5-3.06l-4.93,8.68c2.93,1.85,6.05,3.21,9.37,4.07,3.32.85,7.02,1.28,11.08,1.28,8.21,0,14.59-2.09,19.12-6.27,4.54-4.18,6.81-10.05,6.81-17.62v-54.08h-14.79c-6.13,0-11.52,1.1-16.17,3.32-4.65,2.22-8.26,5.38-10.87,9.48-2.6,4.11-3.9,9.05-3.9,14.84,0,8,2.07,14.1,6.2,18.31,4.15,4.22,10.04,6.32,17.68,6.32h10.49v2.25c0,4.14-1.27,7.45-3.8,9.91ZM468.8,98.26c-4.49,0-7.83-1.21-10.01-3.64-2.17-2.42-3.26-6.21-3.26-11.35,0-5.57,1.6-9.89,4.82-12.96,3.22-3.07,7.68-4.61,13.39-4.61h4.27v32.56h-9.21Z"/>
  <path class="cls-1" d="M522.58,14.89c-1.14.15-2.25.32-3.32.53l-1.71.33c-.93-.43-1.7-1.07-2.31-1.93-.6-.86-.91-1.89-.91-3.11,0-1.71.52-3.04,1.56-3.96,1.03-.93,2.33-1.39,3.9-1.39,1.07,0,2.06.1,2.95.32.89.21,1.73.57,2.52,1.07l1.81-5.04c-2.07-1.14-4.6-1.71-7.6-1.71-3.43,0-6.17.84-8.2,2.51-2.03,1.68-3.05,4.05-3.05,7.12,0,1.5.36,2.84,1.08,4.02.71,1.18,1.71,2.16,3,2.94l-5.35.75v5.14c1.43-.21,3.09-.46,4.98-.75,1.88-.28,3.83-.55,5.83-.8,2-.25,3.91-.46,5.73-.64,1.82-.17,3.42-.3,4.77-.37v-5.57c-.58,0-1.38.05-2.42.16-1.03.1-2.13.23-3.26.37Z"/>
  <rect class="cls-1" x="512.41" y="32.28" width="11.67" height="75.83"/>
  <path class="cls-1" d="M715.53,131.4c1.1-1.25,1.66-2.91,1.66-4.98s-.56-3.73-1.66-4.98c-1.1-1.25-2.66-1.88-4.66-1.88s-3.58.59-4.72,1.77c-1.14,1.17-1.71,2.87-1.71,5.08s.57,3.82,1.71,5.04c1.14,1.21,2.72,1.82,4.72,1.82s3.55-.63,4.66-1.88Z"/>
  <path class="cls-1" d="M697.05,131.46c1.15-1.21,1.72-2.89,1.72-5.04s-.57-3.91-1.72-5.08c-1.14-1.18-2.67-1.77-4.6-1.77s-3.39.55-4.61,1.66c-1.21,1.11-1.81,2.84-1.81,5.19s.6,4,1.81,5.15c1.22,1.14,2.75,1.71,4.61,1.71s3.46-.61,4.6-1.82Z"/>
  <path class="cls-1" d="M825.52,60.56c-4.96-3.93-12.27-5.89-21.91-5.89h-7.6c1.28-2.28,3-4.62,5.13-7.02,2.15-2.39,4.62-4.69,7.45-6.91,2.82-2.21,5.84-4.25,9.05-6.11,3.22-1.85,6.44-3.35,9.64-4.5l-4.29-10.18c-5.2,1.93-10.35,4.71-15.41,8.35-5.08,3.64-9.64,7.79-13.72,12.43-1.93,2.28-3.66,4.59-5.19,6.91-1.53,2.32-2.9,4.73-4.12,7.23v9.64h18.21c6.28,0,10.99,1.24,14.14,3.7,3.14,2.46,4.72,6.19,4.72,11.19v18.85h-113.97v-42.41h-11.67v42.41h-81.29v-42.41h-14.79c-6.13,0-11.52,1.1-16.17,3.32-4.65,2.22-8.26,5.38-10.87,9.48-2.6,4.11-3.9,9.05-3.9,14.84,0,5.36.92,9.85,2.78,13.49,1.86,3.64,4.58,6.41,8.14,8.3,3.57,1.89,7.89,2.84,12.96,2.84h10.49v2.68c0,3.93-1.27,7.1-3.8,9.53-2.53,2.43-6.12,3.64-10.77,3.64-2.85,0-5.53-.37-8.03-1.12-2.5-.75-5-1.77-7.5-3.06l-4.93,8.68c2.93,1.85,6.05,3.21,9.37,4.07,3.32.85,7.02,1.28,11.08,1.28,5.51,0,10.18-.93,14.03-2.79,3.86-1.85,6.81-4.53,8.84-8.03,2.03-3.5,3.06-7.67,3.06-12.53v-2.36h218.28v-30.53c0-7.42-2.48-13.1-7.45-17.03ZM603.33,98.26h-9.21c-4.49,0-7.83-1.21-10.01-3.64-2.17-2.42-3.26-6.21-3.26-11.35,0-5.57,1.6-9.89,4.82-12.96,3.22-3.07,7.68-4.61,13.39-4.61h4.28v32.56Z"/>
  <path class="cls-1" d="M49.76,237.27L4.53,191.73c-7.96,12.14-5.17,29.32,6.36,40.34.17.16,21.87,21.85,22.05,22.01l23.33,23.37c7.96-12.14,5.93-27.75-6.51-40.19Z"/>
  <path class="cls-1" d="M147.87,197.39l-1.39-1.39-.05-.05c.04-.08.08-.15-.06-.06l-29.88-29.88c-3.91-3.79-7.52-7.89-11.11-11.97-1.86-2.1-2.82-6.29-2.18-9.08,5.11-21.52-.74-27.43-10.22-36.75-7.63-7.51-17.07-16.95-24.58-24.58-4.8-4.92-4.49-9.06-.55-13,4.12-4.12,8.23-8.19,12.35-12.31,3.59-3.59,7.22-3.59,10.81-.08,3.63,3.51,9.61,9.57,14.69,14.65,9.08,7.75,9.86,15.31,7.87,29.21-1.26,8.76,3.52,14.86,11.56,22.9,7.32,7.32,8.37,8.25,15.71,15.55l31.54,31.54c8.43-12.99,6.25-26.95-6.5-39.74-13.96-13.96-28.68-28.4-42.32-42.64-2.42-2.5-3.91-6.74-4.08-10.29-.2-3.75,1.73-7.59,2.74-11.38,1.49-5.81.81-11.18-3.47-15.66-3.39-3.55-9.12-9.57-12.8-12.8-12.35-10.77-28.61-10.49-40.59.65-2.74,2.54-5.33,5.29-7.95,7.95-2.02,1.98-4.05,3.97-6.01,5.93-13.08,13.08-14.32,33.65.04,46.81,0,0,28.01,27.83,41.16,40.98,6.58,6.58,8.68,12.44,5.77,21.16-1.53,4.52-1.89,11.62-.03,15.47,2.37,4.89,8.4,10.75,8.4,10.75l1.2,1.24c10.01,9.89,13.61,13.55,23.52,23.53,5.19,5.23,5.14,7.95-.03,13.18-4.09,4.13-8.32,8.14-12.33,12.34-3.57,3.74-7.3,3.79-10.83.4-.79-.75-1.69-1.6-2.65-2.51h.03s-25.73-25.02-29.82-30.54c-1.67-2.26-3.28-6.67-2.91-9.49,3.03-23.17-2.72-29.15-10.12-36.55-7.56-7.56-47.61-47.61-47.61-47.61-8.08,12.32-2.96,31.24,8.4,42.6l38.63,38.63c6.89,6.89,8.76,12.32,5.86,21.05-1.5,4.52-2,10.55-.48,14.56,1.66,4.36,5.38,8.08,5.38,8.08l21.6,21.46c9.23,8.37,23.72,9.48,33.91,2.33,6.99-4.9,13.17-11.06,19.32-17.05,15.59-15.17,15.42-32.13.01-47.58Z"/>
</svg>